<svg version="1.1" id="Calque_1" xmlns="http://www.w3.org/2000/svg" xmlns:xlink="http://www.w3.org/1999/xlink" x="0px" y="0px"
	 viewBox="0 0 6 6" style="enable-background:new 0 0 6 6;" xml:space="preserve">
<style type="text/css">
	.st0{fill-rule:evenodd;clip-rule:evenodd;fill:#C91717;}
</style>
<path class="st0" d="M4.9,5.6c0.2,0.2,0.5,0.2,0.7,0l0,0c0.2-0.2,0.2-0.5,0-0.7L4.1,3.4c-0.2-0.2-0.2-0.5,0-0.7l1.5-1.5
	c0.2-0.2,0.2-0.5,0-0.7l0,0c-0.2-0.2-0.5-0.2-0.7,0L3.4,1.9c-0.2,0.2-0.5,0.2-0.7,0L1.1,0.4c-0.2-0.2-0.5-0.2-0.7,0l0,0
	c-0.2,0.2-0.2,0.5,0,0.7l1.5,1.5c0.2,0.2,0.2,0.5,0,0.7L0.4,4.9c-0.2,0.2-0.2,0.5,0,0.7l0,0c0.2,0.2,0.5,0.2,0.7,0l1.5-1.5
	c0.2-0.2,0.5-0.2,0.7,0L4.9,5.6z"/>
</svg>
