<svg width="6" height="6" viewBox="0 0 6 6" fill="none" xmlns="http://www.w3.org/2000/svg">
<path fill-rule="evenodd" clip-rule="evenodd" d="M4.89666 5.64666C5.09192 5.84192 5.40851 5.84192 5.60377 5.64666L5.64669 5.60374C5.84195 5.40847 5.84195 5.09189 5.64669 4.89663L4.10383 3.35377C3.90856 3.1585 3.90856 2.84192 4.10383 2.64666L5.64672 1.10377C5.84198 0.908503 5.84198 0.591921 5.64672 0.396659L5.6038 0.353736C5.40854 0.158474 5.09195 0.158474 4.89669 0.353736L3.3538 1.89663C3.15854 2.09189 2.84195 2.09189 2.64669 1.89663L1.10359 0.353533C0.908333 0.158271 0.59175 0.158271 0.396488 0.353533L0.353566 0.396455C0.158303 0.591717 0.158303 0.9083 0.353566 1.10356L1.89666 2.64666C2.09192 2.84192 2.09192 3.1585 1.89666 3.35377L0.353594 4.89683C0.158332 5.0921 0.158332 5.40868 0.353594 5.60394L0.396517 5.64686C0.591779 5.84212 0.908361 5.84212 1.10362 5.64686L2.64669 4.10379C2.84195 3.90853 3.15854 3.90853 3.3538 4.10379L4.89666 5.64666Z" fill="white"/>
</svg>
