<svg viewBox="0 0 10 14" xmlns="http://www.w3.org/2000/svg">
<path d="M4.58739 11.4958C4.58728 11.4957 4.5875 11.4959 4.58739 11.4958C4.60087 11.5093 4.61539 11.5223 4.63013 11.5344C4.63688 11.54 4.64402 11.5448 4.65097 11.55C4.65925 11.5562 4.66737 11.5627 4.67599 11.5684C4.6843 11.574 4.69291 11.5788 4.70144 11.5839C4.70926 11.5886 4.71689 11.5934 4.72493 11.5977C4.73363 11.6024 4.74257 11.6063 4.75145 11.6105C4.75982 11.6145 4.76808 11.6187 4.77667 11.6222C4.78528 11.6258 4.79408 11.6287 4.80283 11.6318C4.81205 11.6351 4.82113 11.6386 4.83053 11.6415C4.83928 11.6441 4.84817 11.6461 4.85703 11.6483C4.86663 11.6507 4.87611 11.6534 4.8859 11.6553C4.89616 11.6574 4.90649 11.6586 4.9168 11.66C4.92531 11.6612 4.9337 11.6629 4.94231 11.6637C4.9806 11.6675 5.01918 11.6675 5.05746 11.6637C5.06607 11.6629 5.07447 11.6613 5.08297 11.66C5.09328 11.6586 5.10362 11.6574 5.11387 11.6553C5.12366 11.6534 5.13315 11.6507 5.14274 11.6483C5.15158 11.6461 5.16049 11.6441 5.16924 11.6415C5.17865 11.6386 5.18775 11.6351 5.19694 11.6318C5.20569 11.6286 5.21449 11.6258 5.22311 11.6222C5.23169 11.6187 5.23995 11.6145 5.24832 11.6105C5.2572 11.6063 5.26615 11.6024 5.27484 11.5977C5.28288 11.5934 5.29051 11.5885 5.29833 11.5839C5.30686 11.5788 5.31547 11.574 5.32379 11.5684C5.3324 11.5627 5.34052 11.5562 5.34881 11.55C5.35575 11.5448 5.36289 11.54 5.36964 11.5344C5.38438 11.5223 5.39857 11.5096 5.41205 11.4961C5.41194 11.4962 5.41216 11.496 5.41205 11.4961L9.49571 7.41248C9.72351 7.18468 9.72351 6.81532 9.49571 6.58752C9.2679 6.35972 8.89855 6.35972 8.67074 6.58752L5.5832 9.67504V0.583324C5.5832 0.26116 5.32204 0 4.99987 0C4.67771 0 4.41655 0.26116 4.41655 0.583324V9.67504L1.32903 6.58752C1.10123 6.35972 0.731869 6.35972 0.504068 6.58752C0.276267 6.81532 0.276267 7.18468 0.504068 7.41248L4.58739 11.4958Z"/>
<path d="M9.08298 12.8333H0.916332C0.594168 12.8333 0.333008 13.0944 0.333008 13.4166C0.333008 13.7387 0.594168 13.9999 0.916332 13.9999H9.08301C9.40517 13.9999 9.66633 13.7388 9.66633 13.4166C9.66633 13.0944 9.40514 12.8333 9.08298 12.8333Z"/>
</svg>
