<svg width="12" height="10" viewBox="0 0 12 10" fill="none" xmlns="http://www.w3.org/2000/svg">
<path d="M10.5005 0.874268H3.00315C2.58909 0.874268 2.25342 1.20994 2.25342 1.624C2.25342 2.03807 2.58909 2.37374 3.00315 2.37374H10.5005C10.9146 2.37374 11.2503 2.03807 11.2503 1.624C11.2503 1.20994 10.9146 0.874268 10.5005 0.874268Z" fill="#4788E8"/>
<path d="M1.5037 1.62402C1.50286 1.4255 1.42332 1.23542 1.28253 1.09546C0.99011 0.80477 0.517823 0.80477 0.225402 1.09546C0.0845926 1.23542 0.00505024 1.4255 0.00423021 1.62402C-0.00136938 1.67259 -0.00136938 1.72165 0.00423021 1.77022C0.0127116 1.81907 0.0265349 1.86684 0.0454657 1.91267C0.0655914 1.95707 0.089419 1.99971 0.116691 2.04012C0.143611 2.08216 0.17503 2.12112 0.210408 2.15633C0.244521 2.19031 0.282218 2.22048 0.322868 2.2463C0.362346 2.27505 0.405152 2.29897 0.450323 2.31753C0.500017 2.3433 0.55299 2.36223 0.607768 2.37376C0.656337 2.37919 0.705398 2.37919 0.753967 2.37376C0.951944 2.37392 1.14196 2.29576 1.28253 2.15633C1.31791 2.12112 1.34933 2.08216 1.37625 2.04012C1.40352 1.99971 1.42735 1.95707 1.44747 1.91267C1.47139 1.8674 1.49025 1.81963 1.5037 1.77022C1.5093 1.72165 1.5093 1.67259 1.5037 1.62402Z" fill="#4788E8"/>
<path d="M1.50368 4.9978C1.50926 4.94923 1.50926 4.90017 1.50368 4.8516C1.49073 4.80322 1.47184 4.75664 1.44745 4.7129C1.42815 4.66691 1.40427 4.62296 1.37623 4.5817C1.35025 4.54013 1.31871 4.50229 1.28251 4.46924C0.990091 4.17855 0.517804 4.17855 0.225384 4.46924C0.0845738 4.6092 0.00503145 4.79928 0.00421143 4.9978C0.00566404 5.0966 0.024712 5.19432 0.0604417 5.28645C0.0792319 5.3308 0.101818 5.37344 0.127918 5.4139C0.156431 5.45465 0.189092 5.49234 0.225384 5.52636C0.258513 5.56249 0.296327 5.59403 0.337844 5.62008C0.377322 5.64885 0.420104 5.67277 0.465299 5.69131C0.51101 5.71054 0.558829 5.72439 0.607749 5.73254C0.655709 5.7433 0.704793 5.74833 0.753948 5.74754C0.802517 5.75314 0.851578 5.75314 0.900146 5.74754C0.947848 5.73936 0.994426 5.72551 1.03885 5.7063C1.08526 5.68789 1.12931 5.66396 1.17005 5.63508C1.21157 5.60902 1.24938 5.57749 1.28251 5.54136C1.31864 5.50823 1.35018 5.47041 1.37623 5.4289C1.40505 5.38944 1.42897 5.34666 1.44745 5.30144C1.47306 5.25168 1.49197 5.19873 1.50368 5.144C1.50945 5.09543 1.50945 5.04637 1.50368 4.9978Z" fill="#4788E8"/>
<path d="M1.5037 8.37182C1.50925 8.32325 1.50925 8.27419 1.5037 8.22562C1.49074 8.17605 1.47186 8.12823 1.44747 8.08317C1.42734 8.03878 1.40352 7.99613 1.37624 7.95572C1.35019 7.9142 1.31866 7.87639 1.28253 7.84326C0.990107 7.55257 0.51782 7.55257 0.225399 7.84326C0.189271 7.87639 0.157735 7.9142 0.131682 7.95572C0.10441 7.99613 0.0805828 8.03878 0.0604571 8.08317C0.0410108 8.12881 0.0271641 8.17666 0.0192216 8.22562C0.008655 8.27363 0.00364114 8.32267 0.00422687 8.37182C0.00507032 8.57034 0.0846127 8.76042 0.225399 8.90039C0.258528 8.93652 0.296343 8.96805 0.33786 8.9941C0.377338 9.02288 0.42012 9.0468 0.465315 9.06533C0.511025 9.08456 0.558844 9.09841 0.607765 9.10656C0.655724 9.11732 0.704809 9.12236 0.753963 9.12156C0.802532 9.12716 0.851593 9.12716 0.900162 9.12156C0.947864 9.11338 0.994441 9.09954 1.03886 9.08032C1.08528 9.06191 1.12932 9.03799 1.17007 9.0091C1.21158 8.98305 1.2494 8.95151 1.28253 8.91538C1.31866 8.88225 1.35019 8.84444 1.37624 8.80292C1.40509 8.76349 1.42901 8.72068 1.44747 8.67547C1.47305 8.62568 1.49196 8.57275 1.5037 8.51802C1.50946 8.46945 1.50946 8.42039 1.5037 8.37182Z" fill="#4788E8"/>
<path d="M11.2503 4.24805H3.00315C2.58909 4.24805 2.25342 4.58372 2.25342 4.99778C2.25342 5.41185 2.58909 5.74752 3.00315 5.74752H11.2503C11.6643 5.74752 12 5.41185 12 4.99778C12 4.58372 11.6643 4.24805 11.2503 4.24805Z" fill="#4788E8"/>
<path d="M7.87644 7.62207H3.00315C2.58909 7.62207 2.25342 7.95774 2.25342 8.37181C2.25342 8.78587 2.58909 9.12154 3.00315 9.12154H7.87644C8.29051 9.12154 8.62618 8.78587 8.62618 8.37181C8.62618 7.95774 8.29051 7.62207 7.87644 7.62207Z" fill="#4788E8"/>
</svg>
