<svg height="22" viewBox="0 0 22 22" width="22" xmlns="http://www.w3.org/2000/svg"><path d="m.999999 0c-.552284 0-.999999.447715-.999999 1v.12632c0 .55228.447715 1 1 1h19.2632c.5522 0 1-.44772 1-1v-.12632c0-.552285-.4478-1-1-1zm-.999999 7.50526c0 .55229.447715 1 1 1h19.2632c.5522 0 1-.44771 1-1v-.12631c0-.55229-.4478-1-1-1h-19.263201c-.552284 0-.999999.44771-.999999 1zm0 6.37894c0 .5523.447715 1 1 1h19.2632c.5522 0 1-.4477 1-1v-.1263c0-.5523-.4478-1-1-1h-19.263201c-.552284 0-.999999.4477-.999999 1zm0 6.379c0 .5522.447715 1 1 1h8.63158c.55232 0 1.00002-.4478 1.00002-1v-.1264c0-.5522-.4477-1-1.00002-1h-8.631581c-.552285 0-.999999.4478-.999999 1z"/></svg>
