<svg fill="none" height="20" viewBox="0 0 20 20" width="20" xmlns="http://www.w3.org/2000/svg"><path d="m10 2.354c.5374-.6093 1.2477-1.04049 2.0362-1.23621.7885-.195711 1.618-.146666 2.378.14061.7599.28728 1.4144.79917 1.8763 1.46756s.7093 1.46158.7093 2.27404-.2474 1.60565-.7093 2.27404-1.1164 1.18028-1.8763 1.46756c-.76.28728-1.5895.33632-2.378.14061-.7885-.19572-1.4988-.62691-2.0362-1.23621m3 11.354h-12v-1c0-1.5913.63214-3.1174 1.75736-4.2426 1.12522-1.1253 2.65134-1.7574 4.24264-1.7574s3.1174.6321 4.2426 1.7574c1.1253 1.1252 1.7574 2.6513 1.7574 4.2426zm0 0h6v-1c.0001-1.0533-.277-2.0881-.8035-3.0003-.5266-.9122-1.284-1.6698-2.1961-2.1965-.9122-.5267-1.9469-.804-3.0002-.804-1.0533-.0001-2.088.2772-3.0002.8038m1-7.803c0 1.06087-.4214 2.07828-1.17157 2.82843-.75015.75014-1.76756 1.17157-2.82843 1.17157s-2.07828-.42143-2.82843-1.17157c-.75014-.75015-1.17157-1.76756-1.17157-2.82843s.42143-2.07828 1.17157-2.82843c.75015-.75014 1.76756-1.17157 2.82843-1.17157s2.07828.42143 2.82843 1.17157c.75017.75015 1.17157 1.76756 1.17157 2.82843z" stroke="#000" stroke-linecap="round" stroke-linejoin="round"/></svg>
