<svg xmlns="http://www.w3.org/2000/svg" viewBox="0 0 26 27"><path d="m24.1731 7.9205-9.3333-6.53333c-.5399-.37589-1.182-.577386-1.8399-.577386-.6578 0-1.2999.201496-1.8398.577386l-9.33335 6.53333c-.42262.29583-.76768.68921-1.005907 1.14678-.23823.45758-.362609.96582-.362591 1.48172v12.7843c.000926.8507.339244 1.6662.940718 2.2677.60148.6014 1.417.9397 2.26762.9407h2.91666c.85062-.001 1.66613-.3393 2.26761-.9407.60148-.6015.9398-1.417.94073-2.2677v-4.0833c0-.2321.09218-.4546.25631-.6187.1641-.1641.3866-.2563.6187-.2563h4.6667c.232 0 .4546.0922.6187.2563s.2563.3866.2563.6187v4.0833c.0009.8507.3392 1.6662.9407 2.2677.6015.6014 1.417.9397 2.2676.9407h2.9167c.8506-.001 1.6661-.3393 2.2676-.9407.6014-.6015.9398-1.417.9407-2.2677v-12.7843c0-.5159-.1244-1.02414-.3626-1.48172-.2382-.45757-.5833-.85095-1.0059-1.14678zm-.3815 15.4128c-.0006.3866-.1545.7572-.4278 1.0306-.2734.2733-.644.4272-1.0305.4278h-2.9167c-.3866-.0006-.7572-.1545-1.0305-.4278-.2734-.2734-.4272-.644-.4278-1.0306v-4.0833c-.0007-.696-.2774-1.3633-.7696-1.8555-.4921-.4921-1.1594-.7689-1.8554-.7695h-4.6667c-.69602.0006-1.36334.2774-1.85549.7695-.49215.4922-.76891 1.1595-.76952 1.8555v4.0833c-.00062.3866-.15446.7572-.42782 1.0306-.27336.2733-.64393.4272-1.03052.4278h-2.91666c-.38659-.0006-.75716-.1545-1.03052-.4278-.27336-.2734-.4272-.644-.42782-1.0306v-12.7843c-.00001-.2346.0565-.4658.16474-.67393.10824-.20815.26503-.38717.4571-.5219l9.33331-6.53333c.2455-.17088.5374-.26248.8365-.26248s.591.0916.8365.26248l9.3334 6.53333c.192.13473.3488.31375.457.5219.1083.20813.1648.43933.1648.67393z"></path></svg>
